<svg width="60" height="20" viewBox="0 0 60 20" fill="none" xmlns="http://www.w3.org/2000/svg">
<path d="M31.2515 5.34262H29.4503L28.4345 6.98983H30.2348L31.2515 5.34262ZM35.9241 9.67672C34.9805 9.75477 33.3134 10.5989 32.4054 12.4432C31.4974 14.2875 31.4941 15.426 31.4941 15.426C31.4941 15.426 31.973 14.901 32.7071 14.3514C33.4412 13.8017 33.9875 13.6064 33.9875 13.6064C33.9875 13.6064 34.1238 12.9293 34.4628 12.2211C34.7925 11.5322 35.3156 10.8149 35.9629 10.6522C37.275 10.3219 36.6467 12.7168 35.683 14.2784C35.1649 15.1177 33.3276 17.5298 31.7458 17.5298C30.1639 17.5298 29.8587 16.0046 30.1923 14.5786C30.5256 13.1529 30.9869 11.3414 33.2947 8.05C35.6025 4.75859 38.1005 2.80731 39.5464 1.98732C41.0314 1.14564 41.6366 1.5145 41.6366 1.5145C41.6366 1.5145 39.7407 2.68225 38.6622 4.08717C37.6309 5.43001 37.0156 6.94101 37.4941 7.68144C37.9498 8.38692 39.556 8.40018 41.3247 5.84649C43.0704 3.32564 42.6295 1.8267 42.6295 1.8267C42.6295 1.8267 42.8405 1.75799 42.9821 1.73901C43.8334 1.6257 44.5154 1.85021 45.5714 2.39174C46.6776 2.9592 47.739 3.86929 49.1934 4.61394C49.6312 4.13418 50.1185 3.62459 50.6311 3.12735C48.6705 2.17296 47.1821 0.812637 45.2592 0.68215C43.5854 0.568841 42.2658 1.17878 42.2658 1.17878C42.2658 1.17878 41.7553 0.483557 40.1804 0.710478C38.6055 0.9377 33.7534 2.96643 29.6251 9.57757C25.8925 15.555 27.6512 18.9805 30.3342 18.9413C33.2426 18.8985 36.0093 15.6641 36.9457 12.9968C37.882 10.3295 36.7754 9.6065 35.9241 9.67672ZM41.6335 4.12243C41.1447 5.31399 40.4251 6.14664 39.7169 6.7825C38.8086 7.59827 38.3102 7.57084 38.0944 7.40691C37.5309 6.97778 38.287 5.3595 39.5994 3.91238C40.9064 2.471 42.0316 2.02258 42.0316 2.02258C42.0316 2.03946 42.2188 2.6937 41.6335 4.12243ZM57.8293 2.38481C56.4985 3.24096 54.6533 4.01635 52.8823 3.84548C52.4344 4.31048 51.9541 4.84629 51.4722 5.43242C54.546 6.03875 57.2347 4.13448 58.6662 2.51198C59.5591 1.50033 60 0.597168 60 0.597168C60 0.597168 59.1474 1.5368 57.8293 2.38481Z" fill="#F40009"/>
<path d="M56.3753 9.89691H54.4813L54.1736 10.3724C54.1736 10.3724 53.7873 9.67541 53.133 9.68656C52.012 9.70585 50.89 10.5617 49.5864 12.0462C48.6308 13.1338 47.0468 15.5552 47.0468 15.5552C47.0468 15.5552 45.8315 17.4281 45.2167 17.2813C44.1686 17.0309 46.0964 13.1528 46.0964 13.1528C46.0964 13.1528 47.1098 12.5268 48.4231 11.4218C49.25 10.7262 50.2014 9.76943 51.076 8.88254C51.8712 8.07581 52.8085 6.98038 53.6993 5.78039C53.4711 5.81655 53.2373 5.84096 52.9989 5.85271C52.2 6.90625 51.3472 7.84919 50.6218 8.59867C49.5421 9.71428 48.5488 10.6271 47.827 11.2093C47.1354 11.7668 46.6918 12.0178 46.6918 12.0178C46.6918 12.0178 48.0112 9.30836 50.2102 6.31469C52.4092 3.32132 55.4881 0.540409 55.2467 1.85975C55.1777 2.23855 54.9424 2.78189 54.5871 3.4268C54.8372 3.37466 55.0801 3.30957 55.3145 3.23543C55.8443 2.14181 56.0248 1.24046 55.6294 0.980087C54.016 -0.0824934 49.9121 4.31429 47.8548 6.86798C45.7977 9.42167 43.9359 13.3242 43.9359 13.3242C43.9359 13.3242 43.6141 13.4592 43.2582 13.5267C43.0337 13.5695 42.9378 13.5602 42.9011 13.5457C42.8827 13.5382 42.8806 13.5255 42.8806 13.5255C42.8806 13.5255 44.6902 10.1425 42.8375 9.69379C41.0495 9.26105 37.9516 12.5687 36.8502 14.8696C36.0943 16.4481 35.6679 18.4352 36.9641 18.9084C38.3678 19.421 40.7521 16.8582 41.3126 16.1136C41.8731 15.3686 42.5729 14.1301 42.5729 14.1301C42.5729 14.1301 42.9152 14.112 43.1024 14.0845C43.4604 14.0318 43.6279 13.9878 43.6279 13.9878C43.6279 13.9878 43.3959 14.5956 43.1449 15.3662C42.6769 16.8031 42.2547 18.8589 43.9395 18.9557C45.013 19.0168 46.5879 17.0782 46.5879 17.0782C46.5879 17.0782 46.1642 18.802 47.5573 18.9557C48.5859 19.069 50.0827 17.4799 50.0827 17.4799C50.0827 17.4799 49.7566 18.849 50.7993 18.9695C51.6919 19.0729 52.9591 18.0263 53.9982 16.8748C55.1328 15.6175 56.0031 14.2407 56.0031 14.2407H55.3435C55.3435 14.2407 53.8834 16.4568 52.8582 17.0499C52.0165 17.5369 52.3049 16.7567 52.5601 16.3477C52.8416 15.8966 56.3744 9.89691 56.3744 9.89721L56.3753 9.89691ZM41.9449 14.071C41.919 14.1304 41.4449 14.9552 40.9377 15.6037C40.3914 16.3025 39.3912 17.3543 38.79 17.1319C37.85 16.7841 38.8843 14.7364 39.5605 13.7431C40.2368 12.7498 40.3136 12.6826 40.3326 12.6567C40.3516 12.6308 40.3706 12.607 40.3872 12.6377C40.4037 12.6685 40.6189 13.0765 41.0438 13.4306C41.4705 13.7862 41.881 13.974 41.9141 13.9857C41.9473 13.9975 41.9711 14.0116 41.9449 14.0707V14.071ZM42.3677 13.333C42.3083 13.4318 42.2658 13.4366 42.1426 13.4038C41.9256 13.345 41.0266 12.9295 41.0336 12.0076C41.0399 11.1093 42.3062 10.2293 42.8028 10.6054C43.2663 10.9562 43.0448 11.853 42.87 12.3105C42.6955 12.7676 42.4066 13.2682 42.3677 13.333ZM50.972 15.5552C50.7219 15.8981 50.5127 16.2079 50.3241 16.4255C49.9209 16.8911 49.6578 17.1077 49.4233 17.165C49.3052 17.1936 49.1587 17.1867 49.0617 17.1279C48.7175 16.9185 48.9586 16.103 49.5577 15.0067C50.1059 14.0047 50.7393 13.0021 51.7805 11.8479C52.8259 10.6892 53.2258 10.6334 53.5184 10.6467C53.7647 10.6572 53.7996 10.9161 53.7996 10.9161C53.7996 10.9161 53.7821 10.9761 53.743 11.0439C53.3979 11.6421 51.6597 14.6122 50.9717 15.5552H50.972ZM23.0342 17.0047C21.8857 16.295 20.4124 15.8396 18.7197 15.8249C14.3591 15.7869 9.61119 17.9054 6.39542 17.9341C2.60256 17.9672 2.41361 15.0492 2.69477 13.4469C3.2999 9.99485 5.74841 6.70163 7.3227 4.96522C8.89728 3.22881 10.5472 1.88144 11.919 1.53699C13.2907 1.19254 13.1618 2.23584 12.9939 2.37838C12.8206 2.38199 12.4882 2.41936 12.2996 2.54985C12.0043 2.75357 11.6098 3.12665 11.5851 3.71821C11.5426 4.62951 12.7203 4.78923 13.5716 2.88104C14.1523 1.57948 13.2314 0.69621 12.4665 0.611228C11.4175 0.494302 9.81431 0.858942 7.9007 2.08878C4.57011 4.22901 0.115168 8.98169 0.00155633 14.2548C-0.0632352 17.2629 1.90191 18.9557 4.59814 18.9557C7.29437 18.9557 10.9549 17.3045 14.5293 17.2623C16.7425 17.2434 18.1748 18.0191 18.9002 19.2823C18.9002 19.2823 19.621 18.0832 21.2264 18.0191C22.8145 17.9552 24.563 18.4003 25.9983 19.4092C25.5195 18.7173 24.1658 17.7038 23.0339 17.0047H23.0342Z" fill="#F40009"/>
<path d="M13.1036 5.15805C11.2756 4.69215 8.2397 7.80395 6.96044 10.3365C6.17149 11.8988 5.82553 13.8621 7.23015 14.3729C8.63477 14.8837 11.0179 12.3228 11.5784 11.5781C12.1389 10.8332 13.0563 9.34117 13.0563 9.34117C13.0563 9.34117 13.3377 9.28693 13.5222 9.24413C13.7066 9.20134 14.0046 9.11636 14.0046 9.11636C14.0046 9.11636 13.659 9.73233 13.3471 10.3637C12.9773 11.1122 11.9726 13.6042 13.9124 14.3515C15.7658 15.0654 18.4041 12.0883 18.5428 12.032C18.5428 12.032 17.7574 14.0607 18.9773 14.3729C20.3159 14.7152 21.7829 13.0002 21.7829 13.0002C21.7829 13.0002 21.474 14.2876 22.517 14.4085C24.3848 14.6245 27.6886 9.84715 27.6886 9.84715H27.0286C27.0286 9.84715 25.3474 12.0106 24.5388 12.4575C23.7303 12.9044 24.0211 12.1103 24.2408 11.7553C24.521 11.3036 28.0927 5.33555 28.0927 5.33555H26.1987L25.979 5.68301C25.979 5.68301 25.5888 5.08723 24.9363 5.12972C23.0381 5.25358 20.7794 8.27919 19.7861 9.61269C18.7932 10.9465 16.6508 13.4929 15.5229 13.0391C14.2936 12.5443 15.5159 10.2727 16.3245 8.93886C17.2047 7.48693 18.7649 6.04886 19.3817 6.03771C20.1408 6.02354 19.8428 6.71154 19.8428 6.71154C19.8428 6.71154 19.2753 6.64072 18.864 7.15845C18.5729 7.5246 18.3318 8.0592 18.6084 8.35001C19.0554 8.81982 19.6373 8.34278 19.9847 7.81058C21.0681 6.15222 20.2755 5.27829 19.4245 5.15082C17.6116 4.87869 15.9414 7.20787 14.6718 8.07337C13.791 8.67337 13.423 8.62666 13.423 8.62666C13.423 8.62666 14.9512 5.62877 13.1039 5.15775L13.1036 5.15805ZM21.311 10.521C21.8592 9.51867 22.6059 8.55101 23.5778 7.33806C24.5497 6.1251 25.0334 6.02686 25.326 6.04012C25.5722 6.05097 25.6071 6.30953 25.6071 6.30953C25.6071 6.30953 23.4955 9.98878 22.7295 11.0387C22.4794 11.3817 22.2654 11.6722 22.0768 11.89C21.6735 12.3556 21.3806 12.5807 21.1546 12.6368C21.0365 12.6657 20.89 12.6585 20.7927 12.5994C20.4485 12.39 20.711 11.617 21.3107 10.521H21.311ZM12.3493 9.32701C12.3231 9.38607 11.7201 10.3833 11.2132 11.0318C10.6671 11.7306 9.65788 12.7866 9.05667 12.5642C8.11674 12.2164 9.11935 10.1829 9.7956 9.18989C10.4718 8.19662 10.571 8.06885 10.5903 8.04323C10.6093 8.01701 10.6279 7.9932 10.6445 8.02424C10.6611 8.05498 10.8763 8.49737 11.3422 8.79511C11.8081 9.09315 12.2857 9.23027 12.3188 9.24202C12.352 9.25378 12.3758 9.26824 12.3496 9.32701H12.3493ZM13.1355 7.77472C12.9607 8.23248 12.8046 8.52088 12.7724 8.58899C12.7206 8.69808 12.5907 8.66312 12.5907 8.66312C12.4427 8.65649 11.2924 8.39401 11.2991 7.47216C11.3054 6.57382 12.572 5.69386 13.0683 6.06995C13.5318 6.42073 13.3103 7.31756 13.1355 7.77472ZM54.9502 17.862C54.8396 17.7993 54.7166 17.7683 54.5813 17.7683C54.446 17.7683 54.323 17.7996 54.2124 17.862C54.1018 17.9247 54.015 18.0097 53.9515 18.1179C53.8882 18.2257 53.8562 18.3433 53.8562 18.4698C53.8562 18.5964 53.8879 18.7161 53.9515 18.8233C54.0147 18.9303 54.1018 19.0153 54.2124 19.0777C54.323 19.1404 54.446 19.1714 54.5813 19.1714C54.7166 19.1714 54.8396 19.1401 54.9502 19.0777C55.0608 19.0153 55.1475 18.9303 55.2111 18.8233C55.2744 18.7164 55.3064 18.5985 55.3064 18.4698C55.3064 18.3412 55.2747 18.2257 55.2111 18.1179C55.1478 18.01 55.0608 17.9247 54.9502 17.862ZM55.08 18.7603C55.0321 18.8459 54.9646 18.9131 54.8781 18.9623C54.7916 19.0111 54.6925 19.0355 54.5813 19.0355C54.4701 19.0355 54.3709 19.0111 54.2845 18.9623C54.198 18.9134 54.1308 18.8462 54.0826 18.7603C54.0346 18.6748 54.0105 18.5777 54.0105 18.4698C54.0105 18.362 54.0346 18.2676 54.0826 18.182C54.1305 18.0965 54.1983 18.0293 54.2857 17.9801C54.3731 17.931 54.4716 17.9069 54.5813 17.9069C54.691 17.9069 54.7895 17.9313 54.8769 17.9801C54.9643 18.029 55.0321 18.0962 55.08 18.182C55.128 18.2676 55.1521 18.3638 55.1521 18.4698C55.1521 18.5759 55.128 18.6748 55.08 18.7603Z" fill="#F40009"/>
<path d="M54.8538 18.4584C54.8742 18.425 54.8845 18.3876 54.8845 18.3466C54.8845 18.29 54.8661 18.2427 54.8293 18.2041C54.7926 18.1655 54.7432 18.1462 54.6817 18.1462H54.314V18.7812H54.4759V18.5498H54.5991L54.7483 18.7812H54.9333L54.7664 18.5344C54.804 18.5172 54.8333 18.4919 54.8538 18.4584ZM54.6995 18.3915C54.6874 18.4027 54.6711 18.4081 54.6506 18.4081H54.4759V18.2849H54.6506C54.6711 18.2849 54.6874 18.2906 54.6995 18.3014C54.7115 18.3126 54.7175 18.3277 54.7175 18.3463C54.7175 18.365 54.7115 18.3801 54.6995 18.3912V18.3915Z" fill="#F40009"/>
</svg>
