<svg width="70" height="14" viewBox="0 0 70 14" fill="none" xmlns="http://www.w3.org/2000/svg">
<path d="M5.48311 2.35412C4.66229 2.35412 4.41604 2.71528 4.41604 3.51969V4.84943H6.61585L6.40244 7.01641H4.41604V13.5666H1.77298V7.01641H0V4.86584H1.77298V3.56894C1.77298 1.36913 2.65947 0.219971 5.10553 0.219971C5.61445 0.219971 6.13977 0.252804 6.64869 0.31847V2.35412" fill="#004F9D"/>
<path d="M6.79645 8.93724C6.79645 6.50759 7.9456 4.66895 10.3752 4.66895C11.6886 4.66895 12.493 5.34202 12.887 6.19568V4.86594H15.4151V13.5831H12.8706V12.2698C12.5094 13.107 11.6721 13.7637 10.3588 13.7637C7.9456 13.7637 6.78003 11.9415 6.78003 9.4954M9.4395 9.52823C9.4395 10.8251 9.91558 11.6952 11.1468 11.6952C12.2303 11.6952 12.7721 10.9072 12.7721 9.65956V8.77307C12.7721 7.52542 12.2139 6.73743 11.1468 6.73743C9.91558 6.73743 9.4395 7.59108 9.4395 8.90441V9.52823Z" fill="#004F9D"/>
<path d="M20.8982 4.66895C21.916 4.66895 22.901 4.88236 23.4264 5.25994L22.8354 7.13142C22.2936 6.86876 21.6862 6.73743 21.0788 6.73743C19.6506 6.73743 19.0267 7.55825 19.0267 8.97007V9.47898C19.0267 10.8908 19.6506 11.7116 21.0788 11.7116C21.6862 11.7116 22.2936 11.5639 22.8354 11.3012L23.4264 13.1727C22.901 13.5339 21.9324 13.7637 20.8982 13.7637C17.7955 13.7637 16.4001 12.1056 16.4001 9.42973V9.01932C16.4001 6.34343 17.7955 4.66895 20.8982 4.66895Z" fill="#004F9D"/>
<path d="M23.7711 9.54465V8.77307C23.7711 6.29418 25.1829 4.66895 28.0558 4.66895C30.7645 4.66895 31.963 6.3106 31.963 8.74024V10.1356H26.4142C26.4634 11.334 27.0052 11.8594 28.4662 11.8594C29.4184 11.8594 30.3706 11.6788 31.2735 11.334L31.7495 13.1399C31.06 13.501 29.6318 13.7801 28.3677 13.7801C25.0188 13.7637 23.7711 12.1056 23.7711 9.54465ZM26.4142 8.39549H29.599V8.18208C29.599 7.22992 29.2214 6.47476 28.0558 6.47476C26.8738 6.47476 26.4142 7.22992 26.4142 8.39549Z" fill="#004F9D"/>
<path d="M41.7472 9.49542C41.7472 11.9251 40.5816 13.7637 38.152 13.7637C36.8387 13.7637 35.9193 13.1071 35.5582 12.2698V13.5831H33.0629V0.482761L35.7059 0.25293V6.08079C36.0835 5.30921 36.9372 4.68539 38.1684 4.68539C40.5816 4.68539 41.7636 6.50762 41.7636 8.95368M39.1041 8.88801C39.1041 7.65677 38.6281 6.73745 37.364 6.73745C36.2805 6.73745 35.7059 7.50903 35.7059 8.75668V9.67601C35.7059 10.9237 36.2969 11.6952 37.364 11.6952C38.6281 11.6952 39.1041 10.7759 39.1041 9.54467V8.88801Z" fill="#004F9D"/>
<path d="M42.6172 9.42973V8.98649C42.6172 6.47476 44.0455 4.66895 46.9512 4.66895C49.8569 4.66895 51.2852 6.47476 51.2852 8.98649V9.42973C51.2852 11.9415 49.8569 13.7473 46.9512 13.7473C44.0455 13.7473 42.6172 11.9579 42.6172 9.42973ZM48.6585 8.80591C48.6585 7.65675 48.1824 6.73743 46.9512 6.73743C45.72 6.73743 45.2439 7.65675 45.2439 8.80591V9.62673C45.2439 10.7759 45.72 11.6952 46.9512 11.6952C48.1824 11.6952 48.6585 10.7759 48.6585 9.62673V8.80591Z" fill="#004F9D"/>
<path d="M52.1881 9.42973V8.98649C52.1881 6.47476 53.6163 4.66895 56.5221 4.66895C59.4278 4.66895 60.856 6.47476 60.856 8.98649V9.42973C60.856 11.9415 59.4278 13.7473 56.5221 13.7473C53.6163 13.7473 52.1881 11.9579 52.1881 9.42973ZM58.2294 8.80591C58.2294 7.65675 57.7533 6.73743 56.5221 6.73743C55.2908 6.73743 54.8147 7.65675 54.8147 8.80591V9.62673C54.8147 10.7759 55.2908 11.6952 56.5221 11.6952C57.7533 11.6952 58.2294 10.7759 58.2294 9.62673V8.80591Z" fill="#004F9D"/>
<path d="M64.484 9.0194L67.0943 4.84961H69.8851L67.1599 9.16715L70 13.5832H67.1928L64.484 9.3149V13.5832H61.8574V0.48282L64.484 0.236572" fill="#004F9D"/>
</svg>
